<?xml version="1.0" standalone="no"?>
<!DOCTYPE svg PUBLIC "-//W3C//DTD SVG 20010904//EN"
 "http://www.w3.org/TR/2001/REC-SVG-20010904/DTD/svg10.dtd">
<svg version="1.0" xmlns="http://www.w3.org/2000/svg"
 width="398.000000pt" height="398.000000pt" viewBox="0 0 398.000000 398.000000"
 preserveAspectRatio="xMidYMid meet">

<g transform="translate(0.000000,398.000000) scale(0.100000,-0.100000)"
fill="#000000" stroke="none">
<path d="M2730 3954 c-47 -12 -139 -37 -205 -54 -153 -41 -168 -45 -240 -65
-33 -9 -67 -18 -75 -20 -8 -2 -51 -13 -95 -25 -158 -43 -261 -71 -305 -81 -45
-11 -46 -12 -126 -153 l-81 -141 -159 3 -159 4 -390 -391 -390 -391 385 -385
385 -385 165 0 165 0 79 -140 c43 -77 81 -140 83 -140 2 0 38 -10 81 -21 120
-33 133 -37 192 -52 30 -8 100 -27 155 -42 55 -14 132 -35 170 -45 111 -28
264 -70 335 -90 36 -10 77 -21 92 -24 30 -7 26 -16 73 159 14 55 31 116 37
135 6 19 15 51 19 70 4 19 14 60 22 90 8 30 26 98 40 150 14 52 37 138 52 190
14 52 35 132 46 177 l21 82 -38 63 c-21 35 -58 96 -82 136 l-44 72 42 73 c23
39 60 103 82 141 l40 68 -22 82 c-34 131 -69 264 -97 366 -14 52 -32 120 -40
150 -8 30 -18 69 -23 85 -20 75 -73 274 -81 309 -16 64 -15 64 -109 40z m-290
-376 c-1 -12 -26 -59 -100 -186 -14 -24 -100 -173 -191 -330 l-165 -287 -477
-3 c-262 -1 -477 1 -477 5 0 5 134 144 298 311 199 202 305 304 322 306 14 3
63 14 110 26 47 12 92 24 100 26 8 2 51 13 95 24 44 12 89 23 100 26 11 2 94
24 185 48 184 49 200 51 200 34z m249 -160 c19 -64 65 -229 126 -448 21 -74
48 -173 61 -219 26 -91 29 -123 15 -167 -5 -16 -16 -54 -25 -84 -8 -30 -26
-93 -39 -140 -13 -47 -36 -128 -51 -180 -35 -128 -87 -311 -93 -333 -9 -29
-25 -15 -73 69 -149 255 -420 725 -420 727 0 2 68 119 150 261 83 142 150 259
150 261 0 2 17 32 39 67 21 35 59 100 85 146 27 45 51 82 55 82 4 0 13 -19 20
-42z m-596 -1095 c244 -420 347 -602 347 -613 0 -19 -40 -11 -320 65 -52 14
-117 30 -143 35 -27 5 -52 12 -56 14 -4 3 -18 7 -32 10 -13 2 -60 14 -104 26
-44 12 -93 24 -109 27 -16 2 -36 8 -46 11 -24 10 -600 605 -594 614 3 4 216 8
474 8 l468 0 115 -197z"/>
<path d="M2000 1155 l0 -105 100 0 100 0 0 105 0 105 -100 0 -100 0 0 -105z"/>
<path d="M2480 1134 c-47 -7 -86 -13 -87 -13 -2 -1 -3 -37 -3 -81 l0 -80 -50
0 -51 0 3 -77 3 -78 48 -3 48 -3 -1 -209 c-1 -227 3 -250 55 -284 46 -30 126
-42 201 -29 37 7 70 15 74 20 4 4 2 37 -4 73 l-11 65 -54 -4 c-37 -2 -56 1
-62 10 -5 8 -9 92 -9 187 l0 172 69 0 c78 0 77 -1 83 105 l2 50 -77 3 -77 3 0
94 c0 52 -3 94 -7 94 -5 -1 -46 -7 -93 -15z"/>
<path d="M1610 951 c-36 -10 -78 -23 -93 -30 -39 -15 -42 -14 -55 14 -11 23
-17 25 -82 25 l-70 0 2 -337 3 -338 95 0 95 0 3 227 2 227 56 20 c61 24 114
27 132 9 9 -9 12 -78 12 -250 l0 -239 98 3 97 3 0 275 c0 262 -1 277 -22 322
-29 64 -70 88 -148 87 -33 0 -89 -8 -125 -18z"/>
<path d="M632 678 c3 -260 5 -286 23 -322 11 -22 33 -49 48 -60 42 -31 156
-27 266 9 81 26 85 26 98 9 7 -10 13 -22 13 -26 0 -5 33 -8 73 -6 l72 3 0 335
0 335 -97 3 -98 3 0 -226 0 -226 -47 -21 c-64 -28 -125 -35 -141 -15 -10 11
-14 78 -15 249 l-2 233 -98 3 -98 3 3 -283z"/>
<path d="M2000 620 l0 -341 98 3 97 3 3 338 2 337 -100 0 -100 0 0 -340z"/>
<path d="M2792 948 c3 -7 15 -47 28 -88 13 -41 58 -187 100 -325 l77 -250 32
-3 c17 -2 31 -5 31 -8 0 -2 -16 -58 -35 -123 -19 -65 -35 -123 -35 -129 0 -8
28 -12 88 -12 l88 0 147 468 c81 257 147 471 147 475 0 4 -42 7 -94 7 l-95 0
-25 -82 c-13 -46 -44 -152 -68 -235 -23 -84 -46 -153 -50 -153 -7 0 -20 40
-100 315 l-43 150 -99 3 c-77 2 -97 0 -94 -10z"/>
</g>
</svg>
